<svg xmlns="http://www.w3.org/2000/svg" version="1.1" id="Layer_1" x="0px" y="0px" style="enable-background:new 0 0 1920 609.09;" xml:space="preserve" viewBox="135.1 112.34 1649.79 352.42">
<style type="text/css">
	.st0{fill:#1B1941;}
	.st1{fill:#019AE7;}
	.st2{fill:#014C95;}
	.st3{fill:#0178E7;}
	.st4{fill:#0174AD;}
	.st5{fill:#01C0FF;}
	.st6{fill:#0188B4;}
	.st7{fill:#01E2FF;}
	.st8{fill:#01AFC5;}
	.st9{fill:#01D0C2;}
	.st10{fill:#1EB096;}
	.st11{fill:#72EDD6;}
</style>
<path class="st0" d="M573.06,320.88v41.77h68.52v24.31h-93.93V232.25h92.83v24.31h-67.41v40.23h61.88v24.09H573.06z"/>
<path class="st0" d="M707.44,360.44l30.72-83.99h26.08l-43.1,110.51h-27.63l-43.1-110.51h26.08L707.44,360.44z"/>
<path class="st0" d="M881.61,341.88h-87.97c1.77,8.25,5.78,14.66,12.04,19.23c6.26,4.57,14.04,6.85,23.32,6.85  c12.52,0,22.03-4.57,28.51-13.7l19.67,11.49c-10.76,16.06-26.89,24.09-48.4,24.09c-17.83,0-32.34-5.45-43.54-16.36  c-11.05-11.05-16.58-24.97-16.58-41.77c0-16.36,5.45-30.13,16.36-41.33c10.75-11.2,24.75-16.8,41.99-16.8  c16.06,0,29.32,5.67,39.78,17.02c10.46,11.35,15.69,25.12,15.69,41.33C882.49,334.88,882.19,338.19,881.61,341.88z M793.42,322.43  h64.98c-1.62-8.69-5.27-15.4-10.94-20.11c-5.67-4.71-12.56-7.07-20.67-7.07c-8.84,0-16.21,2.43-22.1,7.29  C798.8,307.4,795.04,314.03,793.42,322.43z"/>
<path class="st0" d="M1041.62,273.58c15.17,0,28.14,5.6,38.9,16.8c10.75,11.2,16.13,24.97,16.13,41.33  c0,16.36-5.38,30.13-16.13,41.33c-10.76,11.2-23.72,16.8-38.9,16.8c-16.8,0-29.69-6.26-38.68-18.79v15.91h-23.87V232.25h23.87v59.9  C1012.08,279.77,1024.97,273.58,1041.62,273.58z M1012.89,357.13c6.63,6.63,14.95,9.95,24.98,9.95c10.02,0,18.34-3.32,24.97-9.95  c6.63-6.78,9.95-15.25,9.95-25.42c0-10.17-3.32-18.57-9.95-25.2c-6.63-6.78-14.96-10.17-24.97-10.17  c-10.02,0-18.35,3.39-24.98,10.17c-6.63,6.63-9.95,15.03-9.95,25.2C1002.94,341.73,1006.26,350.2,1012.89,357.13z"/>
<path class="st0" d="M1225.06,341.88h-87.97c1.77,8.25,5.78,14.66,12.04,19.23c6.26,4.57,14.04,6.85,23.32,6.85  c12.52,0,22.03-4.57,28.51-13.7l19.67,11.49c-10.76,16.06-26.89,24.09-48.4,24.09c-17.83,0-32.34-5.45-43.54-16.36  c-11.05-11.05-16.58-24.97-16.58-41.77c0-16.36,5.45-30.13,16.36-41.33c10.75-11.2,24.75-16.8,41.99-16.8  c16.06,0,29.32,5.67,39.78,17.02c10.46,11.35,15.69,25.12,15.69,41.33C1225.95,334.88,1225.65,338.19,1225.06,341.88z   M1136.88,322.43h64.98c-1.62-8.69-5.27-15.4-10.94-20.11c-5.67-4.71-12.56-7.07-20.67-7.07c-8.84,0-16.21,2.43-22.1,7.29  C1142.25,307.4,1138.5,314.03,1136.88,322.43z"/>
<path class="st0" d="M1263.96,306.96c0,3.39,1.77,6.15,5.3,8.29c3.54,2.14,8.69,4.16,15.47,6.08c5.16,1.18,9.65,2.43,13.48,3.76  c3.83,1.33,7.88,3.28,12.16,5.86c4.27,2.58,7.55,5.97,9.84,10.17c2.28,4.2,3.35,9.1,3.2,14.7c0,10.61-4.13,18.94-12.38,24.98  c-8.25,6.04-18.49,9.06-30.72,9.06c-10.91,0-20.26-2.29-28.07-6.85c-7.81-4.57-13.48-10.9-17.02-19.01l20.55-11.94  c3.68,10.61,11.86,15.91,24.53,15.91c12.52,0,18.79-4.12,18.79-12.38c0-6.04-7-10.75-21-14.14c-5.31-1.33-9.76-2.65-13.37-3.98  c-3.61-1.33-7.59-3.24-11.94-5.75c-4.35-2.5-7.66-5.82-9.94-9.95c-2.29-4.12-3.35-8.91-3.2-14.37c0-10.17,3.83-18.34,11.49-24.53  c7.81-6.19,17.46-9.28,28.95-9.28c9.14,0,17.27,2.03,24.42,6.08c7.14,4.05,12.63,9.69,16.47,16.91l-20.11,11.27  c-3.68-8.4-10.61-12.6-20.78-12.6c-4.72,0-8.59,1.03-11.6,3.09C1265.47,300.4,1263.96,303.27,1263.96,306.96z"/>
<path class="st0" d="M1401.66,276.46v22.99h-27.41v53.04c0,4.57,1.03,7.85,3.1,9.84c2.06,1.99,5.12,3.09,9.17,3.32  c4.05,0.22,9.1,0.19,15.14-0.11v21.44c-18.27,2.21-31.39,0.63-39.34-4.75c-7.96-5.38-11.94-15.28-11.94-29.73v-53.04h-20.33v-22.99  h20.33v-23.87l23.87-7.07v30.94H1401.66z"/>
<path class="st1" d="M1451.38,232.25v130.4h62.99v24.31h-88.41V232.25H1451.38z"/>
<path class="st1" d="M1615.6,292.15v-15.69h23.87v110.51h-23.87v-15.91c-8.99,12.53-21.88,18.79-38.68,18.79  c-15.18,0-28.14-5.6-38.9-16.8c-10.76-11.2-16.14-24.97-16.14-41.33c0-16.36,5.38-30.13,16.14-41.33  c10.75-11.2,23.72-16.8,38.9-16.8C1593.72,273.58,1606.61,279.77,1615.6,292.15z M1555.7,357.13c6.63,6.63,14.95,9.95,24.98,9.95  c10.02,0,18.35-3.32,24.98-9.95c6.63-6.78,9.94-15.25,9.94-25.42c0-10.17-3.31-18.57-9.94-25.2c-6.63-6.78-14.96-10.17-24.98-10.17  c-10.02,0-18.35,3.39-24.98,10.17c-6.63,6.63-9.94,15.03-9.94,25.2C1545.76,341.73,1549.07,350.2,1555.7,357.13z"/>
<path class="st1" d="M1729.86,273.58c15.17,0,28.14,5.6,38.9,16.8c10.75,11.2,16.13,24.97,16.13,41.33  c0,16.36-5.38,30.13-16.13,41.33c-10.76,11.2-23.72,16.8-38.9,16.8c-16.8,0-29.69-6.26-38.68-18.79v15.91h-23.87V232.25h23.87v59.9  C1700.32,279.77,1713.21,273.58,1729.86,273.58z M1701.13,357.13c6.63,6.63,14.95,9.95,24.98,9.95c10.02,0,18.34-3.32,24.97-9.95  c6.63-6.78,9.95-15.25,9.95-25.42c0-10.17-3.32-18.57-9.95-25.2c-6.63-6.78-14.96-10.17-24.97-10.17  c-10.02,0-18.35,3.39-24.98,10.17c-6.63,6.63-9.95,15.03-9.95,25.2C1691.18,341.73,1694.5,350.2,1701.13,357.13z"/>
<path class="st1" d="M409.01,134.06v68.65h-17.7c-8.47,0-15.32,6.85-15.32,15.3v48.81h-50.06v-56.35c0-11.54-9.38-20.89-20.92-20.89  h-50.48v-55.51c0-12.01,9.72-21.73,21.73-21.73h111.05C399.29,112.33,409.01,122.05,409.01,134.06z"/>
<path class="st2" d="M409.01,202.71v42.38c0,12.01-9.72,21.73-21.7,21.73h-11.32V218c0-8.45,6.85-15.3,15.32-15.3H409.01z"/>
<path class="st3" d="M484.86,218v78.25c0,8.47-6.85,15.32-15.32,15.32h-78.22c-8.47,0-15.32-6.85-15.32-15.32v-29.44h11.32  c11.98,0,21.7-9.72,21.7-21.73v-42.38h60.52C478.01,202.71,484.86,209.56,484.86,218z"/>
<path class="st4" d="M325.93,210.46v56.35h-49.67c-12.01,0-21.73-9.72-21.73-21.73v-55.51h50.48  C316.55,189.57,325.93,198.93,325.93,210.46z"/>
<path class="st5" d="M325.93,266.81v50.48c0,11.54-9.38,20.89-20.92,20.89h-61.68v-23.69c0-8.42-6.8-15.22-15.2-15.22h-50.85v-88.81  c0-11.54,9.35-20.89,20.89-20.89h56.35v55.51c0,12.01,9.72,21.73,21.73,21.73H325.93z"/>
<path class="st6" d="M243.33,314.49v23.69h-45.15c-11.54,0-20.89-9.35-20.89-20.89v-18.02h50.85  C236.53,299.27,243.33,306.07,243.33,314.49z"/>
<path class="st7" d="M243.33,338.19v22.17h-21.04c-5.57,0-10.12,4.52-10.12,10.12v37.03h-61.85c-8.4,0-15.22-6.8-15.22-15.22v-77.78  c0-8.42,6.83-15.22,15.22-15.22h26.96v18.02c0,11.54,9.35,20.89,20.89,20.89H243.33z"/>
<path class="st8" d="M243.33,360.36v31.92c0,8.42-6.8,15.22-15.2,15.22h-15.96v-37.03c0-5.6,4.54-10.12,10.12-10.12H243.33z"/>
<path class="st9" d="M284.09,370.48v22.37h-14.12c-5.6,0-10.12,4.54-10.12,10.12v29.32h-37.57c-5.57,0-10.12-4.54-10.12-10.12V407.5  h15.96c8.4,0,15.2-6.8,15.2-15.22v-31.92h30.64C279.57,360.36,284.09,364.88,284.09,370.48z"/>
<path class="st10" d="M284.09,392.84v29.32c0,5.57-4.52,10.12-10.12,10.12h-14.12v-29.32c0-5.57,4.52-10.12,10.12-10.12H284.09z"/>
<path class="st11" d="M331.77,402.96v51.68c0,5.6-4.52,10.12-10.12,10.12h-51.68c-5.6,0-10.12-4.52-10.12-10.12v-22.37h14.12  c5.6,0,10.12-4.54,10.12-10.12v-29.32h37.57C327.25,392.84,331.77,397.38,331.77,402.96z"/>
<polygon class="st0" points="964.27,276.46 927.35,276.46 907.9,276.46 903.48,276.46 903.48,386.96 927.35,386.96 927.35,300.32   964.27,300.32 "/>
</svg>
