<svg width="45" height="45" viewBox="0 0 45 45" fill="none" xmlns="http://www.w3.org/2000/svg">
<path d="M17.3438 24.375C17.3438 26.4469 15.6656 28.125 13.5938 28.125C11.5219 28.125 9.84375 26.4469 9.84375 24.375C9.84375 22.3031 11.5219 20.625 13.5938 20.625C15.6656 20.625 17.3438 22.3031 17.3438 24.375Z" fill="#77C053"/>
<path fill-rule="evenodd" clip-rule="evenodd" d="M13.5938 26.25C14.091 26.25 14.5679 26.0525 14.9196 25.7008C15.2712 25.3492 15.4688 24.8723 15.4688 24.375C15.4688 23.8777 15.2712 23.4008 14.9196 23.0492C14.5679 22.6975 14.091 22.5 13.5938 22.5C13.0965 22.5 12.6196 22.6975 12.2679 23.0492C11.9163 23.4008 11.7188 23.8777 11.7188 24.375C11.7188 24.8723 11.9163 25.3492 12.2679 25.7008C12.6196 26.0525 13.0965 26.25 13.5938 26.25ZM13.5938 28.125C15.6656 28.125 17.3438 26.4469 17.3438 24.375C17.3438 22.3031 15.6656 20.625 13.5938 20.625C11.5219 20.625 9.84375 22.3031 9.84375 24.375C9.84375 26.4469 11.5219 28.125 13.5938 28.125Z" fill="#77C053"/>
<path d="M5.625 34.2609C5.625 31.4278 10.9341 30 13.5937 30C16.2534 30 21.5625 31.4278 21.5625 34.2609V39.375H5.625V34.2609Z" fill="#77C053"/>
<path fill-rule="evenodd" clip-rule="evenodd" d="M7.81312 33.7341C7.51687 34.0266 7.5 34.1944 7.5 34.2619V37.5H19.6875V34.2609C19.6875 34.1953 19.6706 34.0266 19.3744 33.7341C19.0612 33.4256 18.5447 33.0947 17.8369 32.7919C16.4119 32.1816 14.6719 31.875 13.5937 31.875C12.5156 31.875 10.7747 32.1816 9.35062 32.7919C8.64281 33.0947 8.12625 33.4256 7.81312 33.7341ZM13.5937 30C10.9341 30 5.625 31.4278 5.625 34.2609V39.375H21.5625V34.2609C21.5625 31.4278 16.2534 30 13.5937 30Z" fill="#77C053"/>
<path d="M35.1562 24.375C35.1562 26.4469 33.4781 28.125 31.4062 28.125C29.3344 28.125 27.6562 26.4469 27.6562 24.375C27.6562 22.3031 29.3344 20.625 31.4062 20.625C33.4781 20.625 35.1562 22.3031 35.1562 24.375Z" fill="#77C053"/>
<path fill-rule="evenodd" clip-rule="evenodd" d="M31.4062 26.25C31.9035 26.25 32.3804 26.0525 32.7321 25.7008C33.0837 25.3492 33.2812 24.8723 33.2812 24.375C33.2812 23.8777 33.0837 23.4008 32.7321 23.0492C32.3804 22.6975 31.9035 22.5 31.4062 22.5C30.909 22.5 30.4321 22.6975 30.0804 23.0492C29.7288 23.4008 29.5312 23.8777 29.5312 24.375C29.5312 24.8723 29.7288 25.3492 30.0804 25.7008C30.4321 26.0525 30.909 26.25 31.4062 26.25ZM31.4062 28.125C33.4781 28.125 35.1562 26.4469 35.1562 24.375C35.1562 22.3031 33.4781 20.625 31.4062 20.625C29.3344 20.625 27.6562 22.3031 27.6562 24.375C27.6562 26.4469 29.3344 28.125 31.4062 28.125Z" fill="#77C053"/>
<path d="M26.25 22.5C26.25 24.5719 24.5719 26.25 22.5 26.25C20.4281 26.25 18.75 24.5719 18.75 22.5C18.75 20.4281 20.4281 18.75 22.5 18.75C24.5719 18.75 26.25 20.4281 26.25 22.5Z" fill="#77C053"/>
<path fill-rule="evenodd" clip-rule="evenodd" d="M22.5 24.375C22.9973 24.375 23.4742 24.1775 23.8258 23.8258C24.1775 23.4742 24.375 22.9973 24.375 22.5C24.375 22.0027 24.1775 21.5258 23.8258 21.1742C23.4742 20.8225 22.9973 20.625 22.5 20.625C22.0027 20.625 21.5258 20.8225 21.1742 21.1742C20.8225 21.5258 20.625 22.0027 20.625 22.5C20.625 22.9973 20.8225 23.4742 21.1742 23.8258C21.5258 24.1775 22.0027 24.375 22.5 24.375ZM22.5 26.25C24.5719 26.25 26.25 24.5719 26.25 22.5C26.25 20.4281 24.5719 18.75 22.5 18.75C20.4281 18.75 18.75 20.4281 18.75 22.5C18.75 24.5719 20.4281 26.25 22.5 26.25Z" fill="#77C053"/>
<path d="M21.5625 12.0309C21.5625 10.8293 21.0851 9.6768 20.2354 8.82708C19.3857 7.97737 18.2332 7.5 17.0315 7.5H14.0606C12.8313 7.49802 11.6504 7.97923 10.7726 8.83988C9.89486 9.70052 9.39046 10.8717 9.3682 12.1008C9.34594 13.3299 9.8076 14.5185 10.6536 15.4104C11.4997 16.3022 12.6623 16.8259 13.8909 16.8684L14.0625 16.875V18.75C14.0625 18.75 21.5625 17.6559 21.5625 12.0309ZM24.375 10.5338C24.375 9.23187 24.8921 7.98331 25.8127 7.06274C26.7333 6.14217 27.9818 5.625 29.2837 5.625H34.6875C35.9307 5.625 37.123 6.11886 38.002 6.99794C38.8811 7.87701 39.375 9.0693 39.375 10.3125C39.375 11.5557 38.8811 12.748 38.002 13.6271C37.123 14.5061 35.9307 15 34.6875 15H32.8125V17.8125C32.8125 17.8125 24.375 16.6275 24.375 10.5338ZM23.4375 34.2609C23.4375 31.4278 28.7465 30 31.4062 30C34.0659 30 39.375 31.4278 39.375 34.2609V39.375H23.4375V34.2609Z" fill="#77C053"/>
<path fill-rule="evenodd" clip-rule="evenodd" d="M25.6257 33.7341C25.3294 34.0266 25.3125 34.1944 25.3125 34.2619V37.5H37.5V34.2609C37.5 34.1953 37.4832 34.0266 37.1869 33.7341C36.8738 33.4256 36.3572 33.0947 35.6494 32.7919C34.2244 32.1816 32.4844 31.875 31.4063 31.875C30.3282 31.875 28.5872 32.1816 27.1632 32.7919C26.4554 33.0947 25.9388 33.4256 25.6257 33.7341ZM31.4063 30C28.7466 30 23.4375 31.4278 23.4375 34.2609V39.375H39.375V34.2609C39.375 31.4278 34.066 30 31.4063 30ZM22.5 32.8125V32.3859C22.5 30.8137 20.7685 29.6738 18.7454 28.9706C19.9194 28.4158 21.2015 28.1271 22.5 28.125C23.7986 28.1271 25.0807 28.4158 26.2547 28.9706C24.2325 29.6738 22.5 30.8137 22.5 32.3859V32.8125Z" fill="#77C053"/>
<path fill-rule="evenodd" clip-rule="evenodd" d="M22.5 32.8125V32.3859C22.5 31.5488 22.9913 30.8334 23.7563 30.2419C23.8002 30.2084 23.8445 30.1756 23.8894 30.1434C24.5419 29.6691 25.3707 29.2781 26.2547 28.9716C25.3766 28.5575 24.4367 28.2899 23.4722 28.1794C22.8265 28.1069 22.1746 28.1069 21.5288 28.1794C20.564 28.2895 19.6238 28.5568 18.7454 28.9706C19.6294 29.2781 20.4582 29.6691 21.1116 30.1425C21.1566 30.1753 21.1997 30.2081 21.2429 30.2419C22.0088 30.8325 22.5 31.5488 22.5 32.3859V32.8125Z" fill="#77C053"/>
</svg>
