<svg width="45" height="45" viewBox="0 0 45 45" fill="none" xmlns="http://www.w3.org/2000/svg">
<path d="M3.75 24.375V15C3.75 13.9688 4.1175 13.0862 4.8525 12.3525C5.58625 11.6175 6.46875 11.25 7.5 11.25H15V7.5C15 6.46875 15.3675 5.58562 16.1025 4.85062C16.8363 4.11687 17.7188 3.75 18.75 3.75H26.25C27.2813 3.75 28.1644 4.11687 28.8994 4.85062C29.6331 5.58562 30 6.46875 30 7.5V11.25H37.5C38.5313 11.25 39.4144 11.6175 40.1494 12.3525C40.8831 13.0862 41.25 13.9688 41.25 15V24.375H28.125V22.5C28.125 21.9688 27.9456 21.5231 27.5869 21.1631C27.2269 20.8044 26.7813 20.625 26.25 20.625H18.75C18.2188 20.625 17.7738 20.8044 17.415 21.1631C17.055 21.5231 16.875 21.9688 16.875 22.5V24.375H3.75ZM18.75 11.25H26.25V7.5H18.75V11.25ZM20.625 28.125V24.375H24.375V28.125H20.625ZM7.5 39.375C6.46875 39.375 5.58625 39.0081 4.8525 38.2744C4.1175 37.5394 3.75 36.6562 3.75 35.625V28.125H16.875V30C16.875 30.5312 17.055 30.9762 17.415 31.335C17.7738 31.695 18.2188 31.875 18.75 31.875H26.25C26.7813 31.875 27.2269 31.695 27.5869 31.335C27.9456 30.9762 28.125 30.5312 28.125 30V28.125H41.25V35.625C41.25 36.6562 40.8831 37.5394 40.1494 38.2744C39.4144 39.0081 38.5313 39.375 37.5 39.375H7.5Z" fill="#FFD704"/>
</svg>
