<svg width="45" height="43" viewBox="0 0 45 43" fill="none" xmlns="http://www.w3.org/2000/svg">
<path d="M31.9486 36.6164L30.7006 26.6246C30.5237 25.2093 29.8359 23.9074 28.7665 22.9637C27.6971 22.02 26.3198 21.4995 24.8935 21.5H20.5957C19.1701 21.5004 17.7937 22.0214 16.7251 22.965C15.6565 23.9086 14.9693 25.21 14.7925 26.6246L13.5426 36.6164C13.474 37.1654 13.5229 37.7226 13.6862 38.2512C13.8495 38.7798 14.1234 39.2675 14.4897 39.6821C14.856 40.0967 15.3062 40.4287 15.8107 40.6559C16.3151 40.8831 16.862 41.0004 17.4153 41H28.0779C28.6309 41.0001 29.1777 40.8826 29.6818 40.6553C30.186 40.4279 30.6361 40.096 31.0021 39.6814C31.3682 39.2668 31.6419 38.7791 31.8051 38.2507C31.9683 37.7223 32.0172 37.1652 31.9486 36.6164V36.6164Z" stroke="#FF002E" stroke-width="3" stroke-linecap="round" stroke-linejoin="round"/>
<path d="M22.7466 13.7C25.9775 13.7 28.5966 11.0809 28.5966 7.85C28.5966 4.61913 25.9775 2 22.7466 2C19.5157 2 16.8966 4.61913 16.8966 7.85C16.8966 11.0809 19.5157 13.7 22.7466 13.7Z" stroke="#FF002E" stroke-width="3"/>
<path d="M7.14658 19.55C9.30049 19.55 11.0466 17.8039 11.0466 15.65C11.0466 13.4961 9.30049 11.75 7.14658 11.75C4.99267 11.75 3.24658 13.4961 3.24658 15.65C3.24658 17.8039 4.99267 19.55 7.14658 19.55Z" stroke="#FF002E" stroke-width="3"/>
<path d="M38.3465 19.55C40.5004 19.55 42.2465 17.8039 42.2465 15.65C42.2465 13.4961 40.5004 11.75 38.3465 11.75C36.1926 11.75 34.4465 13.4961 34.4465 15.65C34.4465 17.8039 36.1926 19.55 38.3465 19.55Z" stroke="#FF002E" stroke-width="3"/>
<path d="M38.3465 25.3999H38.9432C39.8664 25.3998 40.7597 25.7272 41.4642 26.3238C42.1687 26.9205 42.6387 27.7477 42.7906 28.6584L43.4399 32.5584C43.5331 33.1171 43.5035 33.6895 43.353 34.2356C43.2026 34.7818 42.935 35.2886 42.5688 35.7208C42.2026 36.153 41.7467 36.5003 41.2327 36.7385C40.7188 36.9766 40.1591 37.1 39.5926 37.0999H32.4965M7.14653 25.3999H6.54983C5.62662 25.3998 4.73331 25.7272 4.02882 26.3238C3.32433 26.9205 2.85435 27.7477 2.70248 28.6584L2.05313 32.5584C1.95994 33.1171 1.9896 33.6895 2.14004 34.2356C2.29048 34.7818 2.55808 35.2886 2.92425 35.7208C3.29041 36.153 3.74634 36.5003 4.26032 36.7385C4.7743 36.9766 5.334 37.1 5.90048 37.0999H12.9965L7.14653 25.3999Z" stroke="#FF002E" stroke-width="3" stroke-linecap="round" stroke-linejoin="round"/>
</svg>
