<svg width="45" height="45" viewBox="0 0 45 45" fill="none" xmlns="http://www.w3.org/2000/svg">
<g clip-path="url(#clip0_33_235)">
<path d="M12.8678 33.1873C12.3171 33.1881 11.7853 32.9863 11.3738 32.6203L-0.0112305 22.4998L12.006 11.8168C12.4539 11.4336 13.0344 11.2415 13.6225 11.2818C14.2106 11.3221 14.7593 11.5916 15.1508 12.0323C15.5423 12.473 15.7452 13.0498 15.7159 13.6385C15.6865 14.2272 15.4273 14.781 14.994 15.1806L6.76127 22.4998L14.3618 29.2543C14.7032 29.5573 14.9445 29.957 15.0534 30.4003C15.1624 30.8436 15.1339 31.3096 14.9718 31.7363C14.8097 32.1631 14.5216 32.5304 14.1458 32.7896C13.77 33.0487 13.3243 33.1875 12.8678 33.1873ZM32.994 33.1828L45.0113 22.4998L33.6263 12.3793C33.1802 11.9831 32.595 11.7803 31.9994 11.8155C31.4038 11.8508 30.8466 12.1211 30.4504 12.5672C30.0542 13.0133 29.8514 13.5985 29.8866 14.1941C29.9218 14.7896 30.1922 15.3468 30.6383 15.7431L38.2388 22.4998L30.006 29.8168C29.5597 30.2131 29.289 30.7704 29.2535 31.3662C29.2181 31.962 29.4208 32.5475 29.817 32.9938C30.2133 33.4402 30.7706 33.7109 31.3664 33.7463C31.9622 33.7818 32.5477 33.5791 32.994 33.1828ZM22.4685 36.3711L26.9685 9.37108C27.0261 9.076 27.0239 8.77238 26.9621 8.47815C26.9003 8.18393 26.7802 7.90507 26.6089 7.65804C26.4375 7.41101 26.2184 7.20083 25.9645 7.0399C25.7105 6.87898 25.4269 6.77058 25.1304 6.7211C24.8338 6.67163 24.5304 6.68209 24.238 6.75186C23.9455 6.82163 23.67 6.94929 23.4278 7.12732C23.1855 7.30534 22.9814 7.53011 22.8275 7.78834C22.6735 8.04658 22.5729 8.33305 22.5315 8.63083L18.0315 35.6308C17.974 35.9259 17.9762 36.2295 18.0379 36.5238C18.0997 36.818 18.2198 37.0968 18.3911 37.3439C18.5625 37.5909 18.7816 37.8011 19.0356 37.962C19.2895 38.1229 19.5731 38.2313 19.8697 38.2808C20.1662 38.3303 20.4696 38.3198 20.7621 38.2501C21.0545 38.1803 21.33 38.0526 21.5723 37.8746C21.8145 37.6966 22.0187 37.4718 22.1726 37.2136C22.3265 36.9553 22.4272 36.6689 22.4685 36.3711Z" fill="#0174F3"/>
</g>
<defs>
<clipPath id="clip0_33_235">
<rect width="45" height="45" fill="white"/>
</clipPath>
</defs>
</svg>
