<svg xmlns="http://www.w3.org/2000/svg" width="400" height="400"><path fill="#2A94F4" d="M259.94 296.169c-6.141 6.61-13.141 12.58-20.83 17.771-21.24 14.39-47.82 22.93-76.68 22.93-20.15 0-39.19-4.16-56.061-11.57-23.92 24.37-62.13 22.15-62.13 22.15l30.04-42.28c-23.32-20.12-37.78-48.149-37.78-79.17 0-27.591 11.44-52.82 30.37-72.221 6.7-6.859 14.34-13 22.74-18.25-5.101 12.84-7.88 26.641-7.88 41.01 0 68.511 63.08 124.041 140.88 124.041 12.931-.001 25.441-1.531 37.331-4.411z"/><linearGradient id="a" x1="185.045" x2="185.045" y1="115.129" y2="300.58" gradientUnits="userSpaceOnUse"><stop offset=".394" stop-color="#80e8be"/><stop offset="1" stop-color="#00c278"/></linearGradient><path fill="url(#a)" d="M288.36 225.999c0 26.63-10.65 51.061-28.42 70.17-11.891 2.88-24.4 4.41-37.33 4.41-77.8 0-140.88-55.53-140.88-124.041 0-14.369 2.779-28.17 7.88-41.01 20.56-12.84 45.68-20.399 72.82-20.399 69.55 0 125.93 49.63 125.93 110.87z"/><path fill="#CCE9FF" d="m321.24 265.109 33.61 47.31s-42.761 2.48-69.511-24.779a152.288 152.288 0 0 1-25.399 8.529c-11.891 2.88-24.4 4.41-37.33 4.41-77.8 0-140.88-55.53-140.88-124.041 0-14.369 2.779-28.17 7.88-41.01 19.229-48.359 71.52-83.03 133-83.03 77.81 0 140.89 55.521 140.89 124.04 0 34.701-16.17 66.062-42.26 88.571z"/><path fill="#2A94F4" d="M263.822 178.893h-2.576c-6.988 0-13.27-2.668-18.85-8.001-5.58-5.334-8.369-11.986-8.369-19.956 0-7.848 2.789-14.316 8.369-19.403 5.58-5.09 12.477-7.633 20.689-7.633 8.951 0 16.4 3.586 22.348 10.759 5.947 7.174 8.92 17.381 8.92 30.624 0 12.138-2.604 23.51-7.816 34.116-5.211 10.605-11.588 19.005-19.129 25.199-7.541 6.189-14.254 9.288-20.139 9.288-3.924 0-6.988-1.167-9.195-3.496-2.207-2.33-3.312-5.333-3.312-9.011 0-5.397 2.393-9.381 7.174-11.956 6.5-3.558 11.65-7.725 15.449-12.507 3.803-4.782 5.949-10.791 6.437-18.023zm-73.517 0h-2.391c-6.865 0-13.088-2.668-18.668-8.001-5.578-5.334-8.369-11.986-8.369-19.956 0-7.725 2.791-14.225 8.369-19.495 5.58-5.273 12.479-7.908 20.691-7.908 9.074 0 16.553 3.678 22.439 11.034 5.885 7.357 8.826 17.594 8.826 30.716 0 9.439-1.531 18.328-4.598 26.668-3.062 8.337-7.018 15.602-11.863 21.795-4.842 6.19-10.051 11.096-15.633 14.714-5.578 3.616-10.576 5.427-14.988 5.427-4.047 0-7.143-1.136-9.289-3.404-2.145-2.27-3.219-5.304-3.219-9.103 0-5.519 2.391-9.505 7.172-11.956 6.746-3.802 11.836-8 15.266-12.599 3.436-4.599 5.52-10.577 6.255-17.932z"/></svg>