<svg width="54" height="63" viewBox="0 0 54 63" fill="none" xmlns="http://www.w3.org/2000/svg">
<path d="M44.5465 33.4708C44.4729 25.5744 51.2515 21.7328 51.5615 21.554C47.7225 16.1566 41.772 15.4192 39.681 15.3604C34.6834 14.8532 29.8356 18.244 27.2898 18.244C24.6932 18.244 20.7728 15.4094 16.5476 15.4927C11.1104 15.5735 6.02381 18.6091 3.23408 23.3229C-2.52324 32.9342 1.77061 47.0585 7.28656 54.8274C10.0458 58.6323 13.27 62.8806 17.4902 62.7311C21.6189 62.567 23.1611 60.1929 28.1435 60.1929C33.0802 60.1929 34.5284 62.7311 38.8324 62.6356C43.2635 62.567 46.0532 58.8136 48.7159 54.9744C51.9045 50.6134 53.185 46.3186 53.2359 46.0981C53.1317 46.0638 44.6304 42.9351 44.5465 33.4708Z" fill="black"/>
<path d="M36.4162 10.2497C38.6368 7.57183 40.1561 3.92869 39.7344 0.231636C36.5203 0.368836 32.5009 2.37539 30.1863 4.99444C28.1384 7.30234 26.3091 11.0851 26.7817 14.6425C30.3921 14.9022 34.099 12.8859 36.4162 10.2497Z" fill="black"/>
</svg>
