<svg width="72" height="72" viewBox="0 0 72 72" fill="none" xmlns="http://www.w3.org/2000/svg">
<path fill-rule="evenodd" clip-rule="evenodd" d="M33.2659 72V59.1077C46.9122 59.1077 57.5052 45.5748 52.2647 31.2119C51.3023 28.5733 49.7747 26.177 47.7888 24.1909C45.8029 22.2048 43.4068 20.6769 40.7683 19.7141C26.4054 14.5124 12.8725 25.0667 12.8725 38.713H0.0175781C0.0175781 16.9638 21.0528 1.90735e-05 43.8589 7.12342C53.8114 10.2541 61.7648 18.1688 64.8568 28.1226C71.9815 50.9648 55.0551 72 33.2659 72Z" fill="#0080FF"/>
<path fill-rule="evenodd" clip-rule="evenodd" d="M20.4863 59.145H33.3025V46.3288H20.4876L20.4863 59.145ZM10.6099 69.0215H20.485V59.1464H10.6099V69.0215ZM2.35352 59.1464H10.6099V50.8887H2.35352V59.1464Z" fill="#0080FF"/>
</svg>
