<svg width="36" height="54" viewBox="0 0 36 54" fill="none" xmlns="http://www.w3.org/2000/svg">
<path fill-rule="evenodd" clip-rule="evenodd" d="M18 27C18 22.0294 22.0294 18 27 18C31.9706 18 36 22.0294 36 27C36 31.9706 31.9706 36 27 36C22.0294 36 18 31.9706 18 27Z" fill="#1ABCFE"/>
<path fill-rule="evenodd" clip-rule="evenodd" d="M0 45C0 40.0294 4.02944 36 9 36H18V45C18 49.9706 13.9706 54 9 54C4.02944 54 0 49.9706 0 45Z" fill="#0ACF83"/>
<path fill-rule="evenodd" clip-rule="evenodd" d="M18 0V18H27C31.9706 18 36 13.9706 36 9C36 4.02944 31.9706 0 27 0H18Z" fill="#FF7262"/>
<path fill-rule="evenodd" clip-rule="evenodd" d="M0 9C0 13.9706 4.02944 18 9 18H18V0H9C4.02944 0 0 4.02944 0 9Z" fill="#F24E1E"/>
<path fill-rule="evenodd" clip-rule="evenodd" d="M0 27C0 31.9706 4.02944 36 9 36H18V18H9C4.02944 18 0 22.0294 0 27Z" fill="#A259FF"/>
</svg>
