<svg width="54" height="72" viewBox="0 0 54 72" fill="none" xmlns="http://www.w3.org/2000/svg">
<path d="M27.1107 18.9914C41.9339 7.48366 34.3262 0 34.3262 0C35.4584 11.8966 22.078 14.7056 18.4914 22.8806C16.044 28.459 20.1672 33.3435 27.1057 39.4996C26.4923 38.1362 25.5463 36.8113 24.5885 35.47C21.3219 30.8954 17.9189 26.1297 27.1107 18.9914Z" fill="#E76F00"/>
<path d="M29.4771 42.0233C29.4771 42.0233 33.9368 38.4252 30.405 34.4267C18.4332 20.8617 43.4988 14.7056 43.4988 14.7056C28.1952 22.0781 30.4798 26.4542 34.3263 31.7704C38.4447 37.471 29.4771 42.0233 29.4771 42.0233Z" fill="#E76F00"/>
<path d="M42.6083 52.7525C56.3452 45.7331 49.9938 38.9874 45.5606 39.8962C44.474 40.1186 43.9896 40.3113 43.9896 40.3113C43.9896 40.3113 44.3929 39.6899 45.1634 39.421C53.9336 36.3889 60.6785 48.3636 42.3322 53.1063C42.3322 53.1065 42.5448 52.9196 42.6083 52.7525Z" fill="#5382A1"/>
<path d="M14.0243 43.8681C5.42952 42.7394 18.7368 39.6313 18.7368 39.6313C18.7368 39.6313 13.5691 39.2886 7.21333 42.3098C-0.302014 45.8846 25.8031 47.5105 39.3164 44.0156C40.7213 43.0722 42.6632 42.2545 42.6632 42.2545C42.6632 42.2545 37.1334 43.2257 31.6262 43.6826C24.8877 44.2378 17.6533 44.3459 14.0243 43.8681Z" fill="#5382A1"/>
<path d="M17.2943 50.5706C12.5015 50.0831 15.6397 47.7988 15.6397 47.7988C3.23771 51.8465 22.54 56.4367 39.8697 51.4536C38.0277 50.8149 36.8562 49.647 36.8562 49.647C28.3867 51.2508 23.4922 51.1993 17.2943 50.5706Z" fill="#5382A1"/>
<path d="M19.3826 57.8231C14.5934 57.2816 17.3914 55.6816 17.3914 55.6816C6.13336 58.775 24.2391 65.1657 38.5723 59.1249C36.2247 58.2271 34.5437 57.1906 34.5437 57.1906C28.1499 58.3806 25.1846 58.474 19.3826 57.8231Z" fill="#5382A1"/>
<path d="M49.362 61.5122C49.362 61.5122 51.4325 63.1899 47.0816 64.4878C38.8083 66.9524 12.6471 67.6966 5.37961 64.586C2.76714 63.4684 7.66626 61.9174 9.20734 61.592C10.8145 61.2493 11.733 61.3131 11.733 61.3131C8.82765 59.3005 -7.0459 65.265 3.67 66.9732C32.8938 71.6336 56.9422 64.8746 49.362 61.5122Z" fill="#5382A1"/>
<path d="M54 65.1778C53.5205 71.3131 33.2724 72.6036 20.0867 71.7736C11.4847 71.2311 9.76078 69.8755 9.73554 69.8557C17.9682 71.1905 31.8485 71.4334 43.1028 69.3507C53.0782 67.5036 54 65.1778 54 65.1778Z" fill="#5382A1"/>
</svg>
