<svg width="34" height="28" viewBox="0 0 34 28" fill="none" xmlns="http://www.w3.org/2000/svg">
<path d="M0.574219 27.5V23.3C0.574219 22.475 0.786719 21.7 1.21172 20.975C1.63672 20.25 2.22422 19.7 2.97422 19.325C4.24922 18.675 5.68672 18.125 7.28672 17.675C8.88672 17.225 10.6492 17 12.5742 17C14.4992 17 16.2617 17.225 17.8617 17.675C19.4617 18.125 20.8992 18.675 22.1742 19.325C22.9242 19.7 23.5117 20.25 23.9367 20.975C24.3617 21.7 24.5742 22.475 24.5742 23.3V27.5H0.574219ZM3.57422 24.5H21.5742V23.3C21.5742 23.025 21.5057 22.775 21.3687 22.55C21.2307 22.325 21.0492 22.15 20.8242 22.025C19.9242 21.575 18.7682 21.125 17.3562 20.675C15.9432 20.225 14.3492 20 12.5742 20C10.7992 20 9.20572 20.225 7.79372 20.675C6.38072 21.125 5.22422 21.575 4.32422 22.025C4.09922 22.15 3.91822 22.325 3.78122 22.55C3.64322 22.775 3.57422 23.025 3.57422 23.3V24.5ZM12.5742 15.5C10.9242 15.5 9.51172 14.9125 8.33672 13.7375C7.16172 12.5625 6.57422 11.15 6.57422 9.5H6.19922C5.97422 9.5 5.79322 9.4315 5.65622 9.2945C5.51822 9.1565 5.44922 8.975 5.44922 8.75C5.44922 8.525 5.51822 8.3435 5.65622 8.2055C5.79322 8.0685 5.97422 8 6.19922 8H6.57422C6.57422 6.875 6.84922 5.8625 7.39922 4.9625C7.94922 4.0625 8.67422 3.35 9.57422 2.825V4.25C9.57422 4.475 9.64322 4.656 9.78122 4.793C9.91822 4.931 10.0992 5 10.3242 5C10.5492 5 10.7307 4.931 10.8687 4.793C11.0057 4.656 11.0742 4.475 11.0742 4.25V2.225C11.2992 2.15 11.5367 2.0935 11.7867 2.0555C12.0367 2.0185 12.2992 2 12.5742 2C12.8492 2 13.1117 2.0185 13.3617 2.0555C13.6117 2.0935 13.8492 2.15 14.0742 2.225V4.25C14.0742 4.475 14.1432 4.656 14.2812 4.793C14.4182 4.931 14.5992 5 14.8242 5C15.0492 5 15.2307 4.931 15.3687 4.793C15.5057 4.656 15.5742 4.475 15.5742 4.25V2.825C16.4742 3.35 17.1992 4.0625 17.7492 4.9625C18.2992 5.8625 18.5742 6.875 18.5742 8H18.9492C19.1742 8 19.3557 8.0685 19.4937 8.2055C19.6307 8.3435 19.6992 8.525 19.6992 8.75C19.6992 8.975 19.6307 9.1565 19.4937 9.2945C19.3557 9.4315 19.1742 9.5 18.9492 9.5H18.5742C18.5742 11.15 17.9867 12.5625 16.8117 13.7375C15.6367 14.9125 14.2242 15.5 12.5742 15.5ZM12.5742 12.5C13.3992 12.5 14.1057 12.206 14.6937 11.618C15.2807 11.031 15.5742 10.325 15.5742 9.5H9.57422C9.57422 10.325 9.86822 11.031 10.4562 11.618C11.0432 12.206 11.7492 12.5 12.5742 12.5ZM23.8242 18.5L23.5992 17.375C23.4492 17.325 23.3057 17.2685 23.1687 17.2055C23.0307 17.1435 22.8992 17.05 22.7742 16.925L21.7242 17.3L20.9742 15.95L21.7992 15.2V14.3L20.9742 13.55L21.7242 12.2L22.7742 12.575C22.8742 12.475 22.9992 12.3875 23.1492 12.3125C23.2992 12.2375 23.4492 12.175 23.5992 12.125L23.8242 11H25.3242L25.5492 12.125C25.6992 12.175 25.8492 12.2375 25.9992 12.3125C26.1492 12.3875 26.2742 12.475 26.3742 12.575L27.4242 12.2L28.1742 13.55L27.3492 14.3V15.2L28.1742 15.95L27.4242 17.3L26.3742 16.925C26.2492 17.05 26.1182 17.1435 25.9812 17.2055C25.8432 17.2685 25.6992 17.325 25.5492 17.375L25.3242 18.5H23.8242ZM24.5742 15.875C24.8742 15.875 25.1367 15.7625 25.3617 15.5375C25.5867 15.3125 25.6992 15.05 25.6992 14.75C25.6992 14.45 25.5867 14.1875 25.3617 13.9625C25.1367 13.7375 24.8742 13.625 24.5742 13.625C24.2742 13.625 24.0117 13.7375 23.7867 13.9625C23.5617 14.1875 23.4492 14.45 23.4492 14.75C23.4492 15.05 23.5617 15.3125 23.7867 15.5375C24.0117 15.7625 24.2742 15.875 24.5742 15.875ZM27.2742 11L26.9742 9.425C26.7492 9.35 26.5432 9.256 26.3562 9.143C26.1682 9.031 25.9992 8.9 25.8492 8.75L24.2742 9.275L23.2242 7.475L24.4992 6.35C24.4492 6.225 24.4242 6.125 24.4242 6.05V5.45C24.4242 5.375 24.4492 5.275 24.4992 5.15L23.2242 4.025L24.2742 2.225L25.8492 2.75C25.9992 2.6 26.1682 2.4685 26.3562 2.3555C26.5432 2.2435 26.7492 2.15 26.9742 2.075L27.2742 0.5H29.3742L29.6742 2.075C29.8992 2.15 30.1057 2.2435 30.2937 2.3555C30.4807 2.4685 30.6492 2.6 30.7992 2.75L32.3742 2.225L33.4242 4.025L32.1492 5.15C32.1992 5.275 32.2242 5.375 32.2242 5.45V6.05C32.2242 6.125 32.1992 6.225 32.1492 6.35L33.4242 7.475L32.3742 9.275L30.7992 8.75C30.6492 8.9 30.4807 9.031 30.2937 9.143C30.1057 9.256 29.8992 9.35 29.6742 9.425L29.3742 11H27.2742ZM28.3242 7.625C28.8492 7.625 29.2932 7.4435 29.6562 7.0805C30.0182 6.7185 30.1992 6.275 30.1992 5.75C30.1992 5.225 30.0182 4.781 29.6562 4.418C29.2932 4.056 28.8492 3.875 28.3242 3.875C27.7992 3.875 27.3557 4.056 26.9937 4.418C26.6307 4.781 26.4492 5.225 26.4492 5.75C26.4492 6.275 26.6307 6.7185 26.9937 7.0805C27.3557 7.4435 27.7992 7.625 28.3242 7.625Z" fill="white"/>
</svg>
