<svg width="64" height="57" viewBox="0 0 64 57" fill="none" xmlns="http://www.w3.org/2000/svg">
<path d="M47.8052 52.8609C40.3787 57.1326 30.1675 57.5715 19.8943 53.1873C11.5762 49.6635 4.67438 43.4953 0.25 36.4477C2.37371 38.2096 4.85133 39.6197 7.50589 40.8524C18.1152 45.8038 28.7223 45.4647 36.187 40.8651C25.5684 32.7591 16.5316 22.1734 9.80687 13.5398C8.39048 12.13 7.32862 10.3678 6.26676 8.78188C14.4076 16.1828 27.3273 25.5215 31.9276 28.166C22.1954 17.9447 13.523 5.25808 13.8762 5.60983C29.2734 21.1168 43.6092 29.9279 43.6092 29.9279C44.0834 30.194 44.4494 30.4159 44.7437 30.6139C45.054 29.828 45.3262 29.012 45.5553 28.166C48.0329 19.179 45.202 8.95776 39.0072 0.5C53.3414 9.13442 61.8372 25.3456 58.2966 38.9148C58.2043 39.2808 58.1041 39.6421 57.9959 39.997C65.0739 48.8081 63.2518 58.2989 62.3671 56.537C58.5274 49.0552 51.419 51.343 47.8052 52.8609Z" fill="url(#paint0_linear_673_2345)"/>
<defs>
<linearGradient id="paint0_linear_673_2345" x1="31.7732" y1="0.5" x2="31.7732" y2="56.7529" gradientUnits="userSpaceOnUse">
<stop stop-color="#F88A36"/>
<stop offset="1" stop-color="#FD2020"/>
</linearGradient>
</defs>
</svg>
