<svg width="28" height="32" viewBox="0 0 28 32" fill="none" xmlns="http://www.w3.org/2000/svg">
<path d="M9.5 3.5V0.5H18.5V3.5H9.5ZM12.5 20H15.5V11H12.5V20ZM14 32C12.15 32 10.406 31.644 8.768 30.932C7.131 30.219 5.7 29.25 4.475 28.025C3.25 26.8 2.281 25.369 1.568 23.732C0.856 22.094 0.5 20.35 0.5 18.5C0.5 16.65 0.856 14.906 1.568 13.268C2.281 11.631 3.25 10.2 4.475 8.975C5.7 7.75 7.131 6.7815 8.768 6.0695C10.406 5.3565 12.15 5 14 5C15.55 5 17.0375 5.25 18.4625 5.75C19.8875 6.25 21.225 6.975 22.475 7.925L24.575 5.825L26.675 7.925L24.575 10.025C25.525 11.275 26.25 12.6125 26.75 14.0375C27.25 15.4625 27.5 16.95 27.5 18.5C27.5 20.35 27.144 22.094 26.432 23.732C25.719 25.369 24.75 26.8 23.525 28.025C22.3 29.25 20.869 30.219 19.232 30.932C17.594 31.644 15.85 32 14 32ZM14 29C16.9 29 19.375 27.975 21.425 25.925C23.475 23.875 24.5 21.4 24.5 18.5C24.5 15.6 23.475 13.125 21.425 11.075C19.375 9.025 16.9 8 14 8C11.1 8 8.625 9.025 6.575 11.075C4.525 13.125 3.5 15.6 3.5 18.5C3.5 21.4 4.525 23.875 6.575 25.925C8.625 27.975 11.1 29 14 29Z" fill="white"/>
</svg>
